<svg width="86" height="83" viewBox="0 0 86 83" fill="none" xmlns="http://www.w3.org/2000/svg"><path fill-rule="evenodd" clip-rule="evenodd" d="M46.0634 4.58968C46.055 1.23243 49.7972 -1.28196 52.935 0.826708C55.3673 2.46125 58.9767 5.14438 61.0395 8.05405C63.5888 11.65 64.4877 16.5416 64.7498 20.8439C65.0018 24.981 64.6828 28.9499 64.3824 31.4999H75.7899C81.3982 31.4999 85.7859 36.3327 85.2457 41.915L81.6633 78.9333C81.4401 81.24 79.5016 82.9999 77.1842 82.9999H3H0.5V80.4999V33.9999V31.4999H3H40.8707C41.8879 29.1465 43.7425 24.6491 44.5779 21.3808C45.8572 16.3753 46.0744 9.03465 46.0634 4.58968ZM51.062 5.60652C51.0385 10.1605 50.7693 17.3479 49.4221 22.6189C48.4338 26.4859 46.2795 31.6055 45.3127 33.8238C44.5946 35.4715 42.9723 36.4999 41.2139 36.4999H33V77.9999H76.7303L77.5044 69.9999H68C66.6193 69.9999 65.5 68.8806 65.5 67.4999C65.5 66.1192 66.6193 64.9999 68 64.9999H77.9883L79.0528 53.9999H68.5C67.1193 53.9999 66 52.8806 66 51.4999C66 50.1192 67.1193 48.9999 68.5 48.9999H79.5L79.5367 49.0002L80.269 41.4333C80.5248 38.7891 78.4464 36.4999 75.7899 36.4999H63.9013C61.0866 36.4999 59.0346 33.9923 59.3673 31.3228C59.6617 28.9603 59.9999 25.103 59.759 21.1479C59.5131 17.111 58.6839 13.3768 56.9605 10.9457C55.657 9.10709 53.2553 7.1506 51.062 5.60652ZM5.5 36.4999H28V77.9999H5.5V36.4999ZM16.5405 67.9995C17.6907 67.9684 19.2416 68.6313 20.6878 69.5022C20.911 69.6366 21.1245 69.7716 21.3257 69.9033C21.1496 70.0013 20.9647 70.101 20.7725 70.2003C19.3367 70.943 17.7515 71.5332 16.5405 71.5004C15.3866 71.4693 13.9005 70.8701 12.5677 70.1495C12.413 70.0659 12.2635 69.9823 12.1201 69.9C12.29 69.7847 12.4692 69.6668 12.6557 69.5489C13.9984 68.7003 15.4498 68.0289 16.5405 67.9995ZM24.9645 68.8512C24.9648 68.8514 24.965 68.8516 24 70C24.879 71.2155 24.8788 71.2156 24.8785 71.2158L24.8764 71.2173L24.8723 71.2203L24.8594 71.2295L24.8153 71.2608C24.778 71.2871 24.7251 71.324 24.6577 71.3702C24.523 71.4624 24.3304 71.5914 24.0903 71.7449C23.6115 72.0509 22.9366 72.4586 22.1507 72.865C20.6443 73.6442 18.4794 74.5539 16.4595 74.4993C14.5582 74.448 12.5443 73.5472 11.1409 72.7885C10.4099 72.3933 9.78358 72.0024 9.33952 71.7101C9.11683 71.5636 8.93829 71.4407 8.81347 71.3531C8.75102 71.3092 8.7019 71.2741 8.6673 71.2492L8.6264 71.2195L8.61437 71.2106L8.61051 71.2078L8.60912 71.2068C8.60888 71.2066 8.60809 71.206 9.5 70C8.51783 68.8663 8.51805 68.8661 8.51829 68.8659L8.52021 68.8642L8.52404 68.8609L8.536 68.8506L8.57678 68.816C8.6113 68.7868 8.66035 68.7457 8.72274 68.6944C8.84744 68.5919 9.02595 68.448 9.2487 68.2765C9.6927 67.9344 10.32 67.4762 11.0529 67.013C12.4464 66.1323 14.495 65.0536 16.4595 65.0005C18.5403 64.9443 20.7394 66.0313 22.2354 66.9323C23.023 67.4065 23.6986 67.8813 24.1772 68.2369C24.4173 68.4153 24.6098 68.5653 24.7443 68.6723C24.8116 68.7259 24.8645 68.7688 24.9017 68.7992L24.9456 68.8354L24.9584 68.8461L24.9625 68.8495L24.9645 68.8512ZM9.5 70L8.60809 71.206L7.10238 70.0925L8.51829 68.8659L9.5 70ZM24 70L24.9645 68.8512L26.4371 70.0887L24.8785 71.2158L24 70Z" fill="black"/></svg>