<svg width="123" height="82" viewBox="0 0 123 82" fill="none" xmlns="http://www.w3.org/2000/svg"><path fill-rule="evenodd" clip-rule="evenodd" d="M4.69808 8.96875C4.69808 6.37416 6.80141 4.27083 9.396 4.27083H51.8908V29.0417H4.69808V8.96875ZM56.1616 29.0417H85.0966L71.0871 6.48974C70.2299 5.10994 68.7208 4.27083 67.0964 4.27083H56.1616V29.0417ZM114.734 41.8367L89.8064 33.0783C89.5151 33.228 89.1837 33.3125 88.8335 33.3125H4.69808V60.2188C4.69808 62.8134 6.80141 64.9167 9.396 64.9167H19.5209C21.2798 59.9403 26.0257 56.375 31.6043 56.375C37.183 56.375 41.9289 59.9403 43.6878 64.9167H82.7292C84.4881 59.9403 89.2341 56.375 94.8127 56.375C100.399 56.375 105.15 59.9499 106.903 64.9368C107 64.9235 107.098 64.9167 107.198 64.9167H113.177C115.772 64.9167 117.875 62.8134 117.875 60.2188V46.269C117.875 44.2748 116.616 42.4978 114.734 41.8367ZM44.4168 69.1875H82.0002C82.0002 76.2637 87.7367 82 94.8127 82C101.889 82 107.625 76.2637 107.625 69.1875H113.177C118.131 69.1875 122.146 65.1721 122.146 60.2188V46.269C122.146 42.4617 119.742 39.0694 116.151 37.8074L89.8235 28.5574L74.7149 4.23609C73.0785 1.60194 70.1975 0 67.0964 0H9.396C4.44269 0 0.427246 4.01545 0.427246 8.96875V31.1771V60.2188C0.427246 65.1721 4.44269 69.1875 9.396 69.1875H18.7918C18.7918 76.2637 24.5282 82 31.6043 82C38.6805 82 44.4168 76.2637 44.4168 69.1875ZM31.5619 40.5029L32.1929 39.9273L31.5296 39.1999L30.9031 39.9592L31.5619 40.5029ZM31.5619 52.0341C30.9511 52.6312 30.951 52.6311 30.9509 52.631L30.9498 52.6299L30.9475 52.6275L30.9397 52.6195L30.9121 52.5908C30.8954 52.5734 30.8736 52.5504 30.8471 52.5224L30.8124 52.4854C30.7276 52.3947 30.6075 52.2641 30.4634 52.1012C30.1757 51.7761 29.7885 51.3182 29.3919 50.7882C28.9967 50.2603 28.5825 49.6478 28.2479 49.0141C27.9183 48.3901 27.6374 47.6926 27.5602 47.0043C27.4728 46.2246 27.6999 45.3811 28.0012 44.6299C28.3104 43.8587 28.7404 43.0821 29.1647 42.4008C29.591 41.7162 30.0237 41.1085 30.3488 40.6728C30.5118 40.4544 30.6487 40.2781 30.7456 40.1554C30.7941 40.094 30.8325 40.046 30.8593 40.0128L30.8906 39.9743L30.8993 39.9638L30.9018 39.9607L30.9031 39.9592C30.9031 39.959 30.9031 39.9592 31.5619 40.5029C32.1929 39.9273 32.1929 39.9272 32.1929 39.9273L32.1935 39.9279L32.1945 39.9289L32.1972 39.9319L32.2064 39.9421L32.2394 39.9789C32.2676 40.0106 32.3078 40.0562 32.3584 40.1147C32.4595 40.2313 32.6022 40.3993 32.7717 40.6084C33.1101 41.0253 33.5602 41.611 34.0035 42.2828C34.4448 42.9514 34.8921 43.7245 35.2131 44.5149C35.529 45.2928 35.7541 46.1635 35.6646 47C35.5935 47.6636 35.3007 48.3498 34.9659 48.9597C34.6232 49.5838 34.1962 50.1993 33.7883 50.7348C33.3785 51.2726 32.9774 51.7436 32.6793 52.0797C32.5299 52.2481 32.4055 52.3837 32.3178 52.4778C32.2739 52.5248 32.2391 52.5617 32.2149 52.5872L32.1866 52.6168L32.1788 52.625L32.1764 52.6273L32.1757 52.6281C32.1755 52.6282 32.1752 52.6286 31.5619 52.0341ZM31.5619 52.0341L30.9509 52.631L31.5645 53.2587L32.1757 52.6281L31.5619 52.0341ZM32.4293 49.6995C32.121 50.1042 31.8158 50.4705 31.5625 50.7624C31.3259 50.4874 31.0444 50.1453 30.7596 49.7646C30.3966 49.2796 30.0376 48.745 29.7586 48.2164C29.4744 47.6784 29.3011 47.1987 29.2579 46.8139C29.2177 46.4554 29.3208 45.9291 29.5868 45.2657C29.8448 44.6223 30.219 43.9395 30.6148 43.3039C30.9562 42.7556 31.3048 42.2565 31.5908 41.8664C31.8818 42.2332 32.2334 42.7021 32.5777 43.2237C32.9837 43.839 33.3667 44.5087 33.6303 45.1577C33.899 45.8191 34.0124 46.3843 33.966 46.8182C33.9306 47.1486 33.7636 47.6001 33.4685 48.1375C33.1811 48.6608 32.8081 49.2023 32.4293 49.6995ZM94.1114 39.9595C94.1114 39.9593 94.1114 39.9592 94.77 40.5029C95.4012 39.9273 95.4012 39.9274 95.4012 39.9275L95.402 39.9279L95.4029 39.9289L95.4055 39.9319L95.4149 39.9421L95.4473 39.9789C95.4755 40.0106 95.5165 40.0562 95.5669 40.1147C95.6677 40.2313 95.8103 40.3993 95.9803 40.6084C96.3186 41.0253 96.7687 41.611 97.212 42.2828C97.6528 42.9514 98.1003 43.7245 98.4215 44.5149C98.7376 45.2928 98.9622 46.1635 98.8734 47C98.8016 47.6636 98.5095 48.3498 98.1738 48.9597C97.8313 49.5838 97.4042 50.1993 96.9968 50.7348C96.5868 51.2726 96.1853 51.7436 95.8881 52.0797C95.7386 52.2481 95.6139 52.3837 95.5259 52.4778C95.4823 52.5248 95.4473 52.5617 95.4234 52.5872L95.3952 52.6168L95.3867 52.625L95.385 52.6273L95.3841 52.6281C95.3832 52.6282 95.3832 52.6286 94.77 52.0341C94.1592 52.6312 94.1592 52.6311 94.1592 52.631L94.1584 52.6299L94.1558 52.6275L94.1481 52.6195L94.1208 52.5908C94.0969 52.5662 94.0636 52.5307 94.0209 52.4854C93.9363 52.3947 93.8159 52.2641 93.6715 52.1012C93.3836 51.7761 92.9967 51.3182 92.6004 50.7882C92.2049 50.2603 91.7906 49.6478 91.4566 49.0141C91.1269 48.3901 90.8459 47.6926 90.7682 47.0043C90.6811 46.2246 90.9083 45.3811 91.2098 44.6299C91.519 43.8587 91.9486 43.0821 92.3732 42.4008C92.7994 41.7162 93.2316 41.1085 93.557 40.6728C93.7202 40.4544 93.8569 40.2781 93.9542 40.1554C94.0021 40.094 94.0405 40.046 94.0678 40.0128L94.0986 39.9743L94.108 39.9638L94.1097 39.9607L94.1105 39.9598L94.1114 39.9595ZM94.77 52.0341L95.3832 52.6286L94.7725 53.2587L94.1592 52.631L94.77 52.0341ZM94.1114 39.9595L94.77 40.5029L95.4012 39.9275L94.7384 39.1999L94.1114 39.9595ZM94.7708 50.7624C95.0245 50.4705 95.3294 50.1042 95.6378 49.6995C96.0162 49.2023 96.3895 48.6608 96.6765 48.1375C96.972 47.6001 97.1386 47.1486 97.1744 46.8182C97.2206 46.3843 97.107 45.8191 96.8388 45.1577C96.5748 44.5087 96.1921 43.839 95.7864 43.2237C95.4413 42.7021 95.0903 42.2332 94.799 41.8664C94.5129 42.2565 94.1644 42.7556 93.8235 43.3039C93.4272 43.9395 93.0531 44.6223 92.7951 45.2657C92.5295 45.9291 92.4261 46.4554 92.4663 46.8139C92.509 47.1987 92.6824 47.6784 92.9668 48.2164C93.2461 48.745 93.6049 49.2796 93.9679 49.7646C94.2532 50.1453 94.5342 50.4874 94.7708 50.7624ZM44.9009 51.2162C45.3476 50.4882 45.3475 50.4881 45.3474 50.488L45.3459 50.4871L45.3426 50.485L45.3309 50.4779L45.2884 50.4523C45.2519 50.4303 45.199 50.3989 45.1314 50.3594C44.9965 50.2806 44.8027 50.1696 44.5638 50.0385C44.0872 49.7772 43.4252 49.4332 42.688 49.1062C41.9543 48.7809 41.1255 48.463 40.3188 48.264C39.533 48.0702 38.6661 47.9626 37.9061 48.1576C37.2352 48.3297 36.5835 48.7049 36.0114 49.1181C35.4305 49.5376 34.8816 50.0329 34.4137 50.4977C33.9441 50.9641 33.5445 51.4113 33.2625 51.7414C33.1212 51.9069 33.0086 52.0439 32.9306 52.1405C32.8916 52.1888 32.8612 52.2271 32.8401 52.2538L32.8155 52.2852L32.8086 52.294L32.8066 52.2966L32.8059 52.2975C32.8058 52.2976 32.8055 52.2981 33.4817 52.8199L32.8059 52.2975L32.2694 52.9928L32.9783 53.5099L33.4817 52.8199C32.9783 53.5099 32.9782 53.5098 32.9783 53.5099L32.9797 53.5109L32.9824 53.5129L32.9916 53.5195L33.0248 53.5434C33.0534 53.5639 33.0947 53.5932 33.1475 53.6301C33.2529 53.7039 33.4044 53.8083 33.592 53.9328C33.9663 54.1812 34.4885 54.5129 35.0781 54.8439C35.6651 55.1734 36.334 55.5107 36.9996 55.7632C37.6501 56.01 38.3704 56.2046 39.0375 56.1826C39.8782 56.155 40.7092 55.8109 41.4356 55.3899C42.1737 54.9621 42.877 54.4116 43.4778 53.8816C44.0814 53.3491 44.5989 52.8219 44.9647 52.4289C45.1481 52.2319 45.2946 52.0674 45.3961 51.9509C45.4469 51.8928 45.4865 51.8465 45.5139 51.8143L45.5458 51.7765L45.5547 51.7659L45.5572 51.7628L45.5581 51.7617C45.5582 51.7616 45.5587 51.761 44.9009 51.2162ZM44.9009 51.2162L45.5587 51.7611L46.1867 51.003L45.3474 50.488L44.9009 51.2162ZM35.9142 53.3542C35.4705 53.1052 35.0654 52.8539 34.7411 52.6436C34.9805 52.371 35.2802 52.0448 35.6175 51.7097C36.0474 51.2828 36.5269 50.853 37.0115 50.5031C37.5048 50.1468 37.9557 49.9085 38.3307 49.8123C38.6802 49.7226 39.2158 49.7515 39.9096 49.9227C40.5827 50.0887 41.3108 50.3642 41.9954 50.6679C42.5858 50.9297 43.1285 51.2055 43.5546 51.4345C43.2318 51.7735 42.8165 52.187 42.3477 52.6005C41.7949 53.0882 41.185 53.5606 40.579 53.9118C39.9612 54.2699 39.4174 54.4609 38.9813 54.4753C38.6492 54.4862 38.1789 54.3835 37.6056 54.166C37.0474 53.9542 36.4593 53.6601 35.9142 53.3542ZM108.555 50.488C108.556 50.4881 108.556 50.4882 108.109 51.2162C108.767 51.761 108.767 51.7612 108.766 51.7614L108.765 51.7628L108.763 51.7659L108.754 51.7765L108.722 51.8143C108.695 51.8465 108.655 51.8928 108.604 51.9509C108.503 52.0674 108.356 52.2319 108.173 52.4289C107.807 52.8219 107.289 53.3491 106.686 53.8816C106.085 54.4116 105.382 54.9621 104.644 55.3899C103.917 55.8109 103.087 56.155 102.246 56.1826C101.579 56.2046 100.858 56.01 100.208 55.7632C99.5422 55.5107 98.8734 55.1734 98.2866 54.8439C97.6972 54.5129 97.1744 54.1812 96.8003 53.9328C96.6124 53.8083 96.4612 53.7039 96.3561 53.6301C96.3032 53.5932 96.2622 53.5639 96.2331 53.5434L96.1998 53.5195L96.1904 53.5129L96.1879 53.5109L96.187 53.5103C96.187 53.5102 96.187 53.5099 96.6901 52.8199C96.2571 52.4855 96.1007 52.3653 96.0452 52.3222C96.0136 52.2979 96.0136 52.2979 96.0136 52.2978L96.0145 52.2975L96.017 52.294L96.0239 52.2852L96.0486 52.2538C96.0691 52.2271 96.0999 52.1888 96.1392 52.1405C96.2169 52.0439 96.3297 51.9069 96.4706 51.7414C96.7525 51.4113 97.1522 50.9641 97.622 50.4977C98.0901 50.0329 98.6385 49.5376 99.2193 49.1181C99.7916 48.7049 100.443 48.3297 101.115 48.1576C101.874 47.9626 102.741 48.0702 103.527 48.264C104.334 48.463 105.163 48.7809 105.896 49.1062C106.633 49.4332 107.295 49.7772 107.772 50.0385C108.011 50.1696 108.205 50.2806 108.34 50.3594L108.417 50.4048C108.449 50.4237 108.476 50.4396 108.496 50.4523L108.539 50.4779L108.551 50.485L108.554 50.4871L108.555 50.488ZM96.6901 52.8199L96.187 53.5103L95.4781 52.9928L96.0136 52.2978L96.6901 52.8199ZM108.109 51.2162L108.556 50.4882L109.395 51.003L108.767 51.7611L108.109 51.2162ZM97.9492 52.6436C98.2737 52.8539 98.6786 53.1052 99.1228 53.3542C99.6677 53.6601 100.255 53.9542 100.814 54.166C101.387 54.3835 101.858 54.4862 102.189 54.4753C102.626 54.4609 103.17 54.2699 103.787 53.9118C104.393 53.5606 105.003 53.0882 105.556 52.6005C106.024 52.187 106.44 51.7735 106.763 51.4345C106.337 51.2055 105.794 50.9297 105.204 50.6679C104.519 50.3642 103.791 50.0887 103.118 49.9227C102.424 49.7515 101.889 49.7226 101.539 49.8123C101.164 49.9085 100.713 50.1468 100.22 50.5031C99.7352 50.853 99.256 51.2828 98.8255 51.7097C98.4881 52.0448 98.1892 52.371 97.9492 52.6436ZM29.5652 52.9047L30.2067 52.3408L30.8906 53.1187L29.9966 53.6419L29.5652 52.9047ZM18.2093 51.5768C17.7234 50.8743 17.7234 50.8743 17.7236 50.8742L17.7247 50.8733L17.7275 50.8715L17.7367 50.8652L17.77 50.8425C17.7987 50.8229 17.8402 50.795 17.8932 50.7598C17.9992 50.6893 18.1515 50.5897 18.34 50.4707C18.7162 50.2333 19.2406 49.916 19.8319 49.5985C20.4208 49.2823 21.09 48.9583 21.7537 48.7135C22.4029 48.474 23.1151 48.2844 23.7691 48.2948C24.5967 48.3078 25.4169 48.6143 26.1383 48.9989C26.8694 49.3888 27.5644 49.8944 28.1572 50.3824C28.7525 50.8725 29.2619 51.3591 29.6218 51.7222C29.8022 51.9042 29.9463 52.0564 30.0462 52.1642C30.0962 52.2181 30.1352 52.261 30.1623 52.2911L30.1938 52.3262L30.2026 52.3362L30.2053 52.3391L30.2061 52.3401L30.2067 52.3408C30.2069 52.3409 30.2067 52.3408 29.5652 52.9047C29.9966 53.6419 29.9967 53.6418 29.9966 53.6419L29.9949 53.6429L29.9916 53.6448L29.98 53.6516L29.9374 53.676C29.9008 53.697 29.8477 53.7272 29.78 53.7649C29.6447 53.8405 29.4503 53.947 29.2107 54.0728C28.7325 54.3239 28.0689 54.6546 27.331 54.9706C26.5964 55.2851 25.7691 55.5931 24.9668 55.7901C24.1853 55.9819 23.3296 56.0937 22.5839 55.9249C21.3022 55.6345 20.0152 54.6065 19.1303 53.7832C18.6676 53.3527 18.2747 52.9392 17.9976 52.6338C17.8587 52.4806 17.748 52.3537 17.6712 52.264C17.6329 52.2191 17.6029 52.1836 17.5821 52.1587L17.5578 52.1294L17.551 52.1211L17.5488 52.1185L17.5482 52.1177C17.5481 52.1176 17.5477 52.1171 18.2093 51.5768ZM18.2093 51.5768L17.5482 52.1177L16.9625 51.4006L17.7236 50.8742L18.2093 51.5768ZM20.64 51.1035C20.217 51.3307 19.8286 51.5591 19.511 51.754C19.7314 51.9873 19.9977 52.2568 20.2941 52.5325C21.1717 53.3491 22.1664 54.0787 22.9613 54.2587C23.3169 54.3393 23.8609 54.3024 24.5595 54.131C25.2374 53.9646 25.9704 53.6947 26.6587 53.4001C27.2261 53.1572 27.7501 52.903 28.1698 52.6882C27.8673 52.3936 27.4914 52.0471 27.0714 51.7013C26.5297 51.2554 25.9312 50.8245 25.3346 50.5064C24.7282 50.1831 24.1861 50.0099 23.742 50.0029C23.4007 49.9975 22.922 50.1035 22.3447 50.3163C21.7818 50.5239 21.1889 50.8088 20.64 51.1035ZM93.2051 53.6419L94.0986 53.1187L93.4152 52.3408L92.7738 52.9047C93.4152 52.3408 93.4152 52.3409 93.4152 52.3408L93.4144 52.3401L93.4135 52.3391L93.411 52.3362L93.4024 52.3262L93.3708 52.2911C93.3435 52.261 93.3042 52.2181 93.2547 52.1642C93.1547 52.0564 93.0104 51.9042 92.8301 51.7222C92.4705 51.3591 91.9606 50.8725 91.3652 50.3824C90.7725 49.8944 90.078 49.3888 89.3468 48.9989C88.6251 48.6143 87.8051 48.3078 86.9774 48.2948C86.3231 48.2844 85.6116 48.474 84.962 48.7135C84.2983 48.9583 83.6291 49.2823 83.0402 49.5985C82.4489 49.916 81.9245 50.2333 81.5483 50.4707C81.3598 50.5897 81.2075 50.6893 81.1016 50.7598C81.0485 50.795 81.007 50.8229 80.9783 50.8425L80.945 50.8652L80.9358 50.8715L80.9331 50.8733L80.9322 50.8739C80.932 50.874 80.9317 50.8743 81.4176 51.5768L80.9322 50.8739L80.1708 51.4006L80.7561 52.1172L81.4176 51.5768C80.7561 52.1171 80.756 52.117 80.7561 52.1172L80.7572 52.1185L80.7593 52.1211L80.7662 52.1294L80.7904 52.1587C80.8112 52.1836 80.8412 52.2191 80.8796 52.264C80.9564 52.3537 81.0671 52.4806 81.206 52.6338C81.483 52.9392 81.876 53.3527 82.3387 53.7832C83.2236 54.6065 84.5106 55.6345 85.7918 55.9249C86.5384 56.0937 87.3934 55.9819 88.1749 55.7901C88.977 55.5931 89.8047 55.2851 90.5393 54.9706C91.2773 54.6546 91.941 54.3239 92.4193 54.0728C92.6585 53.947 92.8532 53.8405 92.9882 53.7649C93.0565 53.7272 93.1095 53.697 93.1462 53.676L93.188 53.6516L93.2 53.6448L93.2034 53.6429L93.2043 53.6423C93.2051 53.6422 93.2051 53.6419 92.7738 52.9047L93.2051 53.6419ZM82.7194 51.754C83.037 51.5591 83.4253 51.3307 83.8483 51.1035C84.3972 50.8088 84.9902 50.5239 85.5526 50.3163C86.1301 50.1035 86.6092 49.9975 86.9501 50.0029C87.3942 50.0099 87.9366 50.1831 88.5431 50.5064C89.1393 50.8245 89.7381 51.2554 90.2796 51.7013C90.6999 52.0471 91.0757 52.3936 91.3781 52.6882C90.9587 52.903 90.4342 53.1572 89.867 53.4001C89.1786 53.6947 88.4457 53.9646 87.7675 54.131C87.0696 54.3024 86.5255 54.3393 86.1693 54.2587C85.3747 54.0787 84.38 53.3491 83.5024 52.5325C83.2061 52.2568 82.9398 51.9873 82.7194 51.754ZM40.146 69.1875C40.146 73.905 36.3218 77.7292 31.6043 77.7292C26.8869 77.7292 23.0627 73.905 23.0627 69.1875C23.0627 64.47 26.8869 60.6458 31.6043 60.6458C36.3218 60.6458 40.146 64.47 40.146 69.1875ZM94.8127 77.7292C99.5302 77.7292 103.354 73.905 103.354 69.1875C103.354 64.47 99.5302 60.6458 94.8127 60.6458C90.0951 60.6458 86.271 64.47 86.271 69.1875C86.271 73.905 90.0951 77.7292 94.8127 77.7292Z" fill="black"/></svg>