<svg width="86" height="85" viewBox="0 0 86 85" fill="none" xmlns="http://www.w3.org/2000/svg"><path fill-rule="evenodd" clip-rule="evenodd" d="M46.0558 9.58153C48.2185 7.40263 49.9103 5.77459 51.7263 4.78823C53.4409 3.85693 55.3181 3.476 57.9165 4.00801C60.0055 4.43578 61.4713 5.10772 62.6026 6.06763C63.7393 7.03213 64.6559 8.38695 65.4799 10.3756C65.6626 10.8166 65.7527 11.5739 65.6404 12.6364C65.5316 13.6662 65.2482 14.8378 64.8361 16.0036C64.4247 17.1676 63.9006 18.2816 63.3367 19.1992C62.7568 20.1426 62.2023 20.7678 61.7734 21.0728C61.7039 21.1222 61.6395 21.1761 61.5803 21.2337L42.7917 16.6238C43.4441 13.8444 44.4803 11.1688 46.0558 9.58153ZM39.6804 15.8604C40.3917 12.8478 41.6163 9.52326 43.7823 7.34103C45.8856 5.22207 47.9016 3.23495 50.2053 1.98361C52.6108 0.677088 55.2656 0.197394 58.582 0.876478C61.038 1.37943 63.0446 2.2303 64.6917 3.62791C66.3335 5.02094 67.5013 6.85828 68.4463 9.13898C68.9207 10.2841 68.9678 11.654 68.8308 12.9506C68.6903 14.2799 68.3378 15.6995 67.8612 17.0479C67.3839 18.3983 66.7663 19.7216 66.0694 20.8557C65.4897 21.799 64.8051 22.6933 64.0363 23.3494C64.0291 23.3923 64.02 23.4354 64.0091 23.4784C64.0036 23.5003 63.9976 23.5222 63.9912 23.5436L64.8169 31.5601C67.9687 31.2686 71.6355 31.3639 74.445 32.7797C77.0982 34.1167 79.5992 35.4118 81.483 37.209C83.4499 39.0854 84.7009 41.4559 85.042 44.8149C85.2945 47.3022 85.0802 49.4713 84.2362 51.4694C83.3949 53.461 81.9875 55.141 80.0897 56.7474C79.1368 57.554 77.8416 58.0248 76.5615 58.2981C75.2489 58.5784 73.787 58.6855 72.3558 58.6526C70.9227 58.6197 69.4736 58.4454 68.1815 58.1367C67.013 57.8574 65.8627 57.4426 64.9712 56.8416L59.495 59.6252C60.7427 62.1677 61.7375 65.1059 61.5484 67.8509C61.3444 70.8131 61.1202 73.6186 60.196 76.0623C59.2314 78.613 57.5363 80.7094 54.5801 82.373C52.3909 83.6049 50.3131 84.2829 48.1481 84.3164C45.9899 84.3497 43.8994 83.7397 41.6875 82.6521C40.5748 82.105 39.6401 81.1093 38.8936 80.0495C38.1283 78.9625 37.4644 77.6695 36.9415 76.3486C36.4177 75.0259 36.0179 73.6315 35.8024 72.3268C35.6215 71.231 35.5542 70.1031 35.712 69.1024L28.5354 61.6231C26.0693 63.8741 22.7853 66.2705 19.402 66.8243C16.4573 67.3063 13.6609 67.7327 11.0689 67.393C8.36262 67.0384 5.9456 65.8663 3.68335 63.365C2.00794 61.5128 0.899761 59.6425 0.404123 57.5401C-0.0899378 55.4447 0.0599428 53.2674 0.651355 50.8616C0.948385 49.6536 1.7218 48.5147 2.59974 47.5435C3.49993 46.5478 4.62374 45.6034 5.80527 44.7899C6.98845 43.9751 8.26826 43.2648 9.49985 42.7547C10.2127 42.4595 10.9524 42.2133 11.6755 42.0639C11.6925 42.0339 11.7107 42.0043 11.7299 41.9751L17.1489 33.7245C14.5508 32.0132 11.8259 29.7022 10.5399 26.8988C9.30373 24.2038 8.16004 21.636 7.81054 19.0543C7.44562 16.3587 7.94674 13.7167 9.77342 10.8586C11.1261 8.74219 12.6445 7.16526 14.5475 6.11283C16.4444 5.06376 18.5886 4.61049 21.0694 4.51858C22.315 4.47242 23.6184 4.90262 24.787 5.47917C25.9852 6.07031 27.1922 6.89031 28.2878 7.80154C29.385 8.71405 30.4065 9.74798 31.2218 10.7906C32.0185 11.8093 32.6999 12.9397 32.9897 14.0444C33.0058 14.1054 33.018 14.1667 33.0267 14.2277L39.6804 15.8604ZM29.7649 14.5166C29.5733 14.0461 29.2194 13.4472 28.6864 12.7658C28.0269 11.9223 27.1683 11.0479 26.2226 10.2614C25.2754 9.47358 24.2766 8.80383 23.3485 8.34592C22.3908 7.87343 21.6472 7.69536 21.1675 7.71313C19.0045 7.7933 17.4034 8.17925 16.0901 8.90558C14.783 9.62842 13.6265 10.763 12.476 12.5632C11.0448 14.8025 10.7297 16.6851 10.9898 18.6064C11.2652 20.6415 12.1879 22.7827 13.4591 25.554C14.3862 27.575 16.5316 29.4695 18.9114 31.0411L29.7649 14.5166ZM21.66 32.676L31.8077 17.226L39.0792 19.0101C38.8791 20.3433 38.7625 21.542 38.6946 22.4654C38.6513 23.053 38.6275 23.532 38.6144 23.867C38.608 24.0346 38.6041 24.1663 38.6018 24.2577L38.6004 24.3207L38.5996 24.3641L38.5991 24.3937L38.599 24.4025L38.599 24.4053C38.599 24.4057 38.5989 24.4071 40.2028 24.4142L38.5989 24.4071L38.5982 24.4679L38.6022 24.5286L40.2028 24.4142C38.6022 24.5286 38.6021 24.5285 38.6022 24.5286L38.6024 24.5304L38.6027 24.5359L38.6042 24.5577L38.6097 24.6433L38.6313 24.974L38.7118 26.2032L38.9841 30.3713L39.5282 38.6925L31.3828 36.2798L27.3704 35.0913L26.1871 34.7408L25.8688 34.6466L25.8215 34.6326L25.7736 34.6137C25.7022 34.5853 25.5943 34.542 25.4543 34.4842C25.1744 34.3685 24.767 34.1951 24.2679 33.9683C23.5486 33.6414 22.6445 33.2063 21.66 32.676ZM19.8925 35.367L14.9767 42.8515L28.6088 57.0586C29.1485 56.4805 29.6187 55.9452 30.0022 55.4931C30.3583 55.0733 30.6377 54.7275 30.8263 54.4889C30.9207 54.3697 30.9922 54.2775 31.0391 54.2163L31.0706 54.1752L31.097 54.1335L31.2755 53.8526L31.9389 52.8082L34.1884 49.2667L38.9009 41.8476L30.4502 39.3445L26.4378 38.1561L25.2544 37.8056L24.9361 37.7113L24.8537 37.6868L24.8328 37.6807L24.8275 37.6792L24.8262 37.6787C24.8261 37.6786 24.8257 37.6786 25.292 36.1462C24.7103 37.6396 24.71 37.6395 24.7097 37.6394L24.7061 37.638L24.698 37.6349L24.6703 37.6242C24.6469 37.6151 24.6137 37.602 24.5711 37.5852C24.4861 37.5515 24.3637 37.5024 24.2087 37.4383C23.8987 37.3102 23.4573 37.1222 22.921 36.8784C22.0969 36.504 21.0423 35.9951 19.8925 35.367ZM25.292 36.1462L24.7097 37.6394L24.7673 37.6614L24.8262 37.6787L25.292 36.1462ZM30.8221 59.3652L38.0814 66.9308L55.0785 58.2911C54.2969 57.027 53.518 55.9334 52.9169 55.1354C52.5892 54.7002 52.3161 54.3553 52.1267 54.1215C52.0321 54.0045 51.9585 53.9155 51.9096 53.8569L51.8771 53.8181L51.8429 53.7838L51.6098 53.5507L50.7433 52.684L47.805 49.7451L41.6073 43.5462L36.8958 50.9637L34.6463 54.5052L33.9829 55.5496L33.8044 55.8305L33.7583 55.9033L33.7465 55.9218L33.7435 55.9264L33.7427 55.9276C33.7427 55.9278 33.7425 55.928 32.3888 55.0795C33.6731 56.0285 33.673 56.0288 33.6727 56.0291L33.6705 56.0322L33.6651 56.0391L33.6473 56.0629C33.6321 56.0829 33.6104 56.1115 33.5824 56.1479C33.5264 56.2208 33.4454 56.3254 33.3409 56.4575C33.1321 56.7216 32.8292 57.0962 32.4465 57.5474C32.0061 58.0665 31.4573 58.6901 30.8221 59.3652ZM32.3888 55.0795L33.6727 56.0291L33.7097 55.9796L33.7427 55.9276L32.3888 55.0795ZM57.9531 56.8299L63.8825 53.8159L61.9623 35.1749C60.905 35.3649 59.9646 35.5758 59.2222 35.759C58.6876 35.8909 58.2585 36.0077 57.9657 36.0906C57.8195 36.132 57.7074 36.165 57.6335 36.1872L57.5839 36.2021L57.538 36.2203L57.2284 36.3437L56.0776 36.8025L52.175 38.3578L44.1579 41.553L50.0851 47.4815L53.0233 50.4202L53.8898 51.2869L54.1229 51.5201L54.1833 51.5804L54.1987 51.5958L54.2025 51.5997L54.2034 51.6006C54.2035 51.6007 54.2038 51.6009 53.0638 52.7328C54.2865 51.6904 54.2868 51.6906 54.2871 51.6909L54.2895 51.6938L54.2951 51.7003L54.3142 51.7229C54.3303 51.7419 54.3532 51.7691 54.3823 51.804C54.4405 51.8739 54.524 51.975 54.629 52.1046C54.8388 52.3638 55.1348 52.7377 55.4872 53.2055C56.1662 54.1071 57.0611 55.3657 57.9531 56.8299ZM53.0638 52.7328L54.2871 51.6909L54.2469 51.6441L54.2034 51.6006L53.0638 52.7328ZM61.6341 31.9898L60.8474 24.3512L42.2059 19.7773C42.048 20.8878 41.9521 21.8891 41.8939 22.6784C41.8537 23.2251 41.8318 23.6672 41.82 23.9698C41.8142 24.1211 41.8108 24.2372 41.8089 24.3139L41.8078 24.3655L41.811 24.4145L41.8326 24.7452L41.9129 25.9745L42.1854 30.1426L42.7436 38.6816L51.0007 35.3907L54.9032 33.8353L56.0541 33.3766L56.3637 33.2533L56.4438 33.2213L56.4642 33.2131L56.4693 33.2112L56.4706 33.2106C56.4708 33.2107 56.4711 33.2105 57.0583 34.694C56.5863 33.1695 56.5866 33.1694 56.587 33.1692L56.5906 33.1682L56.599 33.1655L56.6274 33.1568C56.6515 33.1495 56.6858 33.139 56.7299 33.1258C56.8179 33.0995 56.945 33.0621 57.107 33.0162C57.4311 32.9243 57.8961 32.7979 58.4706 32.6562C59.3158 32.4477 60.4043 32.2045 61.6341 31.9898ZM57.0583 34.694L56.587 33.1692L56.5279 33.1878L56.4706 33.2106L57.0583 34.694ZM65.1444 34.739L67.1713 54.4158C67.6063 54.6348 68.2025 54.8493 68.9489 55.0277C69.9943 55.2775 71.2156 55.4284 72.4509 55.4567C73.6882 55.4851 74.8925 55.3895 75.9092 55.1725C76.9582 54.9485 77.6553 54.6274 78.0222 54.3167C79.6769 52.9161 80.6982 51.6246 81.2807 50.2458C81.8604 48.8734 82.065 47.2731 81.8502 45.1574C81.583 42.5256 80.6585 40.8625 79.2566 39.525C77.7715 38.1083 75.7105 37.0092 72.9823 35.6344C70.9641 34.6173 68.0391 34.4773 65.1444 34.739ZM56.6286 61.0821L39.2139 69.9343C39.091 69.9967 38.9639 70.0419 38.8355 70.071C38.8181 70.5335 38.8564 71.1111 38.9679 71.7874C39.1423 72.8428 39.4755 74.0189 39.9267 75.1584C40.3786 76.2999 40.9317 77.361 41.5237 78.2017C42.1347 79.0694 42.6978 79.5748 43.1224 79.7836C45.0484 80.7306 46.6287 81.143 48.1197 81.1201C49.604 81.0971 51.1539 80.6402 53.0165 79.592C55.3335 78.2881 56.5065 76.7731 57.1949 74.9523C57.9241 73.0245 58.1382 70.6985 58.3479 67.653C58.4839 65.6783 57.7314 63.339 56.6286 61.0821ZM26.325 59.3194L12.7075 45.1274C12.1995 45.1878 11.5217 45.3712 10.7143 45.7055C9.71787 46.1182 8.63695 46.7137 7.61715 47.4159C6.59571 48.1194 5.67415 48.9031 4.97687 49.6745C4.25748 50.4704 3.88133 51.1377 3.76699 51.6029C3.25121 53.7006 3.18525 55.3388 3.52734 56.7895C3.86778 58.2336 4.64762 59.6407 6.07258 61.2161C7.84511 63.1758 9.57887 63.9708 11.5078 64.2235C13.5511 64.4913 15.8743 64.1655 18.9024 63.6699C21.3239 63.2735 24.0003 61.4306 26.325 59.3194Z" fill="currentColor"/></svg>