<svg width="29" height="23" viewBox="0 0 29 23" fill="none" xmlns="http://www.w3.org/2000/svg"><path d="M0.953125 22.7031V17.0312C0.953125 15.125 1.26562 13.1406 1.89062 11.0781C2.54688 8.98437 3.48438 6.98438 4.70312 5.07812C5.92188 3.14063 7.39062 1.46875 9.10938 0.0625L14.0312 3.48438C12.5938 5.54688 11.4844 7.67187 10.7031 9.85938C9.92188 12.0156 9.53125 14.3594 9.53125 16.8906V22.7031H0.953125ZM15.7188 22.7031V17.0312C15.7188 15.125 16.0312 13.1406 16.6562 11.0781C17.3125 8.98437 18.25 6.98438 19.4688 5.07812C20.6875 3.14063 22.1562 1.46875 23.875 0.0625L28.7969 3.48438C27.3594 5.54688 26.25 7.67187 25.4688 9.85938C24.6875 12.0156 24.2969 14.3594 24.2969 16.8906V22.7031H15.7188Z" fill="black"/></svg>