<svg width="28" height="23" viewBox="0 0 28 23" fill="none" xmlns="http://www.w3.org/2000/svg"><path d="M13.2812 0V6C13.2812 7.875 12.9531 9.85937 12.2969 11.9531C11.6719 14.0156 10.75 16.0156 9.53125 17.9531C8.3125 19.8594 6.84375 21.5312 5.125 22.9688L0.15625 19.5469C1.625 17.4844 2.73438 15.375 3.48438 13.2188C4.26562 11.0312 4.65625 8.67188 4.65625 6.14062V0H13.2812ZM27.6719 0V6C27.6719 7.875 27.3438 9.85937 26.6875 11.9531C26.0625 14.0156 25.1406 16.0156 23.9219 17.9531C22.7031 19.8594 21.2344 21.5312 19.5156 22.9688L14.5469 19.5469C16.0156 17.4844 17.125 15.375 17.875 13.2188C18.6562 11.0312 19.0469 8.67188 19.0469 6.14062V0H27.6719Z" fill="black"/></svg>