<svg width="55" height="56" viewBox="0 0 55 56" fill="none" xmlns="http://www.w3.org/2000/svg"><path fill-rule="evenodd" clip-rule="evenodd" d="M4.26777 1.6524C3.29146 0.676089 1.70854 0.676088 0.732233 1.6524C-0.244077 2.62871 -0.244078 4.21162 0.732233 5.18793L23.9645 28.4202L0.732249 51.6524C-0.244061 52.6287 -0.244061 54.2116 0.732249 55.1879C1.70856 56.1642 3.29147 56.1642 4.26778 55.1879L27.5 31.9557L50.7322 55.1879C51.7085 56.1642 53.2914 56.1642 54.2677 55.1879C55.2441 54.2116 55.2441 52.6287 54.2677 51.6524L31.0355 28.4202L54.2678 5.18793C55.2441 4.21162 55.2441 2.62871 54.2678 1.6524C53.2915 0.676088 51.7085 0.676089 50.7322 1.6524L27.5 24.8846L4.26777 1.6524Z" fill="currentColor"/></svg>