<svg width="56" height="54" viewBox="0 0 56 54" fill="none" xmlns="http://www.w3.org/2000/svg"><path fill-rule="evenodd" clip-rule="evenodd" d="M5.12132 0.87868C3.94975 -0.292893 2.05025 -0.292893 0.87868 0.87868C-0.292893 2.05025 -0.292893 3.94975 0.87868 5.12132L23.7574 28L2.87868 48.8787C1.70711 50.0503 1.70711 51.9497 2.87868 53.1213C4.05025 54.2929 5.94975 54.2929 7.12132 53.1213L28 32.2426L48.8787 53.1213C50.0503 54.2929 51.9497 54.2929 53.1213 53.1213C54.2929 51.9497 54.2929 50.0503 53.1213 48.8787L32.2426 28L55.1213 5.12132C56.2929 3.94975 56.2929 2.05025 55.1213 0.87868C53.9497 -0.292893 52.0503 -0.292893 50.8787 0.87868L28 23.7574L5.12132 0.87868Z" fill="currentColor"/></svg>