<svg width="50" height="50" viewBox="0 0 50 50" fill="none" xmlns="http://www.w3.org/2000/svg"><path d="M25 0C38.8076 0 50 11.1924 50 25C50 38.8076 38.8076 50 25 50C11.1924 50 0 38.8076 0 25C0 11.1924 11.1924 0 25 0ZM33.6239 35.1902C34.0837 33.7793 36.238 19.7185 36.5043 16.9478C36.5848 16.1087 36.3196 15.5511 35.8 15.3022C35.1717 15 34.2413 15.1511 33.162 15.5402C31.6815 16.0739 12.7554 24.1098 11.662 24.575C10.625 25.0152 9.64457 25.4957 9.64457 26.1913C9.64457 26.6804 9.93478 26.9554 10.7348 27.2413C11.5674 27.538 13.6641 28.1739 14.9022 28.5152C16.0946 28.8446 17.4522 28.5587 18.213 28.0859C19.0196 27.5848 28.3272 21.3565 28.9957 20.8109C29.663 20.2652 30.1957 20.9641 29.65 21.5109C29.1043 22.0565 22.7152 28.2576 21.8728 29.1163C20.85 30.1587 21.5761 31.2391 22.262 31.6717C23.0457 32.1652 28.6815 35.9456 29.5304 36.5522C30.3793 37.1587 31.2402 37.4337 32.0283 37.4337C32.8163 37.4337 33.2315 36.3956 33.6239 35.1902Z" fill="black"/></svg>