<svg width="66" height="82" viewBox="0 0 66 82" fill="none" xmlns="http://www.w3.org/2000/svg"><path fill-rule="evenodd" clip-rule="evenodd" d="M48.573 20.4118C48.573 28.2633 41.6279 34.6735 33 34.6735C24.3721 34.6735 17.427 28.2633 17.427 20.4118C17.427 12.5602 24.3721 6.15 33 6.15C41.6279 6.15 48.573 12.5602 48.573 20.4118ZM55.2472 20.4118C55.2472 31.6849 45.2868 40.8235 33 40.8235C20.7132 40.8235 10.7528 31.6849 10.7528 20.4118C10.7528 9.13863 20.7132 0 33 0C45.2868 0 55.2472 9.13863 55.2472 20.4118ZM6.67416 78.9257C6.67416 61.1729 19.1053 47.9808 33 47.9808C46.8947 47.9808 59.3258 61.1729 59.3258 78.9257C59.3258 80.6238 60.8199 82.0007 62.6629 82.0007C64.506 82.0007 66 80.6238 66 78.9257C66 59.1009 51.8701 41.8308 33 41.8308C14.1299 41.8308 0 59.1009 0 78.9257C0 80.6238 1.49406 82.0007 3.33708 82.0007C5.1801 82.0007 6.67416 80.6238 6.67416 78.9257Z" fill="black"/></svg>