<svg width="56" height="56" viewBox="0 0 56 56" fill="none" xmlns="http://www.w3.org/2000/svg"><path fill-rule="evenodd" clip-rule="evenodd" d="M29.037 1.03704C29.037 0.464298 28.5727 0 28 0C27.4273 0 26.963 0.464298 26.963 1.03704V19.7037C26.963 20.2764 27.4273 20.7407 28 20.7407C28.5727 20.7407 29.037 20.2764 29.037 19.7037V1.03704ZM34.5259 20.6149C34.121 21.0199 34.121 21.6766 34.5259 22.0814C34.9309 22.4865 35.5876 22.4865 35.9926 22.0814L49.1919 8.8822C49.5969 8.4772 49.5969 7.82059 49.1919 7.4156C48.787 7.01062 48.1303 7.01062 47.7253 7.4156L34.5259 20.6149ZM7.56301 49.0444C7.158 48.6395 7.158 47.9829 7.56301 47.5778L20.7623 34.3786C21.1674 33.9735 21.824 33.9735 22.2289 34.3786C22.634 34.7835 22.634 35.4401 22.2289 35.8452L9.02958 49.0444C8.6246 49.4495 7.96799 49.4495 7.56301 49.0444ZM36.2963 26.963C35.7236 26.963 35.2593 27.4273 35.2593 28C35.2593 28.5727 35.7236 29.037 36.2963 29.037H54.963C55.5356 29.037 56 28.5727 56 28C56 27.4273 55.5356 26.963 54.963 26.963H36.2963ZM0 28C0 27.4273 0.464298 26.963 1.03704 26.963H19.7037C20.2764 26.963 20.7407 27.4273 20.7407 28C20.7407 28.5727 20.2764 29.037 19.7037 29.037H1.03704C0.464298 29.037 0 28.5727 0 28ZM8.42211 7.56301C8.01713 7.158 7.36052 7.158 6.95551 7.56301C6.55053 7.96799 6.55053 8.6246 6.95551 9.02958L20.1548 22.2289C20.5598 22.634 21.2165 22.634 21.6214 22.2289C22.0265 21.824 22.0265 21.1674 21.6214 20.7623L8.42211 7.56301ZM33.9186 34.5259C34.3234 34.121 34.9801 34.121 35.3852 34.5259L48.5844 47.7253C48.9894 48.1303 48.9894 48.787 48.5844 49.1919C48.1795 49.5969 47.5228 49.5969 47.1178 49.1919L33.9186 35.9926C33.5135 35.5876 33.5135 34.9309 33.9186 34.5259ZM29.037 36.2963C29.037 35.7236 28.5727 35.2593 28 35.2593C27.4273 35.2593 26.963 35.7236 26.963 36.2963V54.963C26.963 55.5356 27.4273 56 28 56C28.5727 56 29.037 55.5356 29.037 54.963V36.2963Z" fill="currentColor"/></svg>