<svg width="60" height="47" viewBox="0 0 60 47" fill="none" xmlns="http://www.w3.org/2000/svg"><path fill-rule="evenodd" clip-rule="evenodd" d="M39.1164 0.567881C42.3318 -0.201523 44.4957 -0.176012 47.6898 0.564977C50.5491 1.22831 52.435 1.93617 54.7694 3.90988C56.1765 5.09957 57.1878 6.28177 57.9457 7.64282C58.6939 8.98622 59.1522 10.4278 59.5437 12.0644C60.2177 14.8773 60.0782 16.6763 59.559 19.3567C59.1345 21.549 58.6299 22.7985 57.6547 24.7351C56.0141 27.9929 54.2196 29.7012 51.9631 31.8494L51.9623 31.8502C51.6475 32.1499 51.3237 32.4581 50.9901 32.7804C48.7983 34.8973 47.0224 36.1481 44.9965 37.5751C44.2816 38.0785 43.5356 38.6041 42.7292 39.1972C40.661 40.7185 37.7135 42.6123 35.3154 44.1077C34.1098 44.8596 33.0309 45.5182 32.2533 45.989C31.8644 46.2244 31.5507 46.413 31.3337 46.543C31.2252 46.608 31.1408 46.6584 31.0834 46.6926L31.0178 46.7317L31.0008 46.7418L30.9963 46.7445L30.9952 46.7451C30.9952 46.7451 30.9947 46.7454 30.8855 46.575L30.9952 46.7451C30.651 46.9495 30.2623 47.0274 29.8889 46.9916C29.5193 47.027 29.1351 46.9514 28.7931 46.7514L28.9002 46.5818C28.7931 46.7515 28.7931 46.7514 28.7931 46.7514L28.7914 46.7504L28.787 46.7479L28.7704 46.7381L28.7066 46.7006C28.6507 46.6678 28.5686 46.6195 28.4631 46.5571C28.2519 46.4324 27.9465 46.2513 27.5678 46.025C26.8106 45.5725 25.7589 44.9381 24.5802 44.2105C22.2364 42.7634 19.342 40.9177 17.2709 39.3942C16.4646 38.8011 15.7187 38.2758 15.0039 37.7723C12.978 36.3454 11.2018 35.0943 9.00997 32.9774C8.67614 32.6549 8.35218 32.3465 8.03721 32.0466C5.78072 29.8985 3.986 28.1899 2.34541 24.9322C1.37011 22.9955 0.865594 21.746 0.440864 19.5537C-0.0784047 16.8733 -0.217405 15.0743 0.456131 12.2614C0.84801 10.6248 1.3061 9.18322 2.05428 7.83982C2.81228 6.47877 3.82359 5.29658 5.2307 4.10689C7.56513 2.13318 9.45094 1.42532 12.3103 0.761987C15.5044 0.0209963 17.6683 -0.0045144 20.8837 0.76489C21.2542 0.853545 21.6226 0.92808 21.9918 1.00275C23.5145 1.31079 25.0486 1.62113 26.7861 2.93491C27.6365 3.57791 29.0335 4.70107 30.2674 5.70382C30.4138 5.56141 30.592 5.39095 30.7968 5.2004C31.3939 4.6452 32.2313 3.90635 33.1781 3.19048C35.2194 1.64697 36.787 1.12527 39.1164 0.567881ZM32.3008 8.5883C32.1594 8.74703 31.9861 8.94153 31.7739 9.1798L30.6189 10.4762L30.616 10.4738L30.6069 10.4662L30.5708 10.4365L30.4317 10.3218C30.3108 10.2222 30.136 10.0783 29.9207 9.90141C29.49 9.54749 28.8976 9.06195 28.2502 8.53489C26.9462 7.47327 25.4499 6.26811 24.5951 5.62171C23.5514 4.83257 22.9051 4.69803 21.567 4.41949C21.1374 4.33006 20.6364 4.22577 20.0281 4.08021C17.3931 3.44968 15.8083 3.46436 13.1412 4.08311C10.639 4.6636 9.34037 5.1783 7.5714 6.67394C6.42368 7.6443 5.70376 8.51519 5.18072 9.45429C4.64787 10.4111 4.27514 11.5168 3.91308 13.0289C3.3832 15.2419 3.46576 16.5394 3.92835 18.9272C4.27984 20.7415 4.65861 21.6963 5.53751 23.4415C6.90125 26.1495 8.27555 27.4616 10.5214 29.6059C10.5236 29.6079 10.5264 29.6107 10.5285 29.6127C10.842 29.912 11.1725 30.2276 11.5223 30.5654C13.5058 32.4812 15.0017 33.535 16.9481 34.9061L16.9496 34.9072C17.6917 35.43 18.4993 35.999 19.4244 36.6795C21.3712 38.1115 24.1601 39.8931 26.495 41.3346C27.6558 42.0512 28.6923 42.6765 29.4386 43.1224C29.6013 43.2197 29.7503 43.3084 29.8836 43.3877C30.0268 43.3014 30.188 43.2041 30.3651 43.0969C31.1327 42.6322 32.1977 41.982 33.387 41.2404C35.779 39.7487 38.6259 37.9166 40.5756 36.4825C41.5008 35.8019 42.3086 35.2329 43.0508 34.71L43.0519 34.7093C44.9983 33.3381 46.4942 32.2842 48.4777 30.3684C48.8302 30.028 49.163 29.7102 49.4786 29.4089C51.7245 27.2646 53.0988 25.9525 54.4625 23.2445C55.3414 21.4993 55.7202 20.5445 56.0717 18.7302C56.5343 16.3424 56.6169 15.0449 56.087 12.832C55.7249 11.3198 55.3522 10.2141 54.8193 9.25729C54.2963 8.31814 53.5763 7.4473 52.4286 6.47695C50.6596 4.98129 49.3611 4.46659 46.8589 3.88611C44.9554 3.44453 43.6033 3.31061 42.0272 3.4993C41.3949 3.57501 40.7265 3.70265 39.9719 3.8832C37.8993 4.37914 36.8653 4.74599 35.3691 5.8773C34.5471 6.49881 33.8034 7.15357 33.2614 7.65763C32.9919 7.90831 32.7757 8.11841 32.6286 8.26416C32.5551 8.33698 32.4991 8.39352 32.4625 8.43076C32.4441 8.44937 32.4307 8.46315 32.4224 8.47169L32.4137 8.48057L32.413 8.48137C32.377 8.51889 32.3394 8.55465 32.3008 8.5883Z" fill="black"/></svg>