<?xml version="1.0" standalone="no"?><!DOCTYPE svg PUBLIC "-//W3C//DTD SVG 20010904//EN"
 "http://www.w3.org/TR/2001/REC-SVG-20010904/DTD/svg10.dtd"><svg version="1.0" xmlns="http://www.w3.org/2000/svg" width="117.000000pt" height="117.000000pt" viewBox="0 0 117.000000 117.000000" preserveAspectRatio="xMidYMid meet"><metadata>Created by potrace 1.14, written by Peter Selinger 2001-2017</metadata><g transform="translate(0.000000,117.000000) scale(0.100000,-0.100000)" fill="#000000" stroke="none"><path d="M655 949 c-24 -23 -50 -56 -57 -75 -10 -29 -15 -33 -37 -27 -14 3
-42 23 -61 44 -19 21 -48 45 -63 53 -69 34 -167 -35 -167 -116 0 -53 29 -118
64 -146 l27 -21 -26 -39 c-15 -22 -40 -46 -56 -52 -45 -19 -89 -75 -89 -113 0
-39 30 -90 66 -113 40 -27 124 -22 178 10 l43 25 36 -37 c23 -23 37 -48 37
-63 0 -34 33 -92 61 -106 58 -30 148 0 176 58 15 32 20 103 10 145 -11 42 18
56 88 41 42 -8 57 -7 86 7 63 30 88 110 54 176 -19 36 -86 77 -142 86 -38 6
-43 10 -48 38 -4 22 2 46 20 80 36 70 33 100 -14 147 -35 35 -44 39 -90 39
-46 0 -56 -4 -96 -41z m153 -5 c32 -22 43 -55 31 -97 -15 -57 -25 -60 -128
-36 -50 12 -91 26 -91 31 0 21 32 68 62 92 38 30 92 34 126 10z m-350 -56 l31
-33 -55 -83 c-55 -83 -56 -84 -76 -65 -29 26 -58 87 -58 122 0 18 11 40 29 60
40 43 86 43 129 -1z m119 -78 c2 0 3 -43 3 -95 0 -52 -3 -95 -8 -95 -18 0
-146 40 -155 49 -5 5 11 39 42 84 50 75 51 76 83 66 18 -5 34 -9 35 -9z m150
-36 c72 -17 72 -18 75 -53 l3 -36 -88 -33 c-49 -19 -91 -31 -95 -28 -3 4 -8
45 -10 93 l-5 86 24 -6 c13 -4 56 -14 96 -23z m87 -181 c4 -32 9 -75 12 -95 5
-32 2 -38 -22 -51 -28 -15 -29 -14 -94 55 -36 39 -66 74 -68 78 -3 7 139 68
159 70 4 0 10 -26 13 -57z m132 36 c66 -40 83 -102 43 -153 -17 -22 -28 -26
-74 -26 l-53 0 -7 73 c-3 39 -8 84 -11 100 -5 26 -4 27 32 27 20 0 52 -9 70
-21z m-473 -15 c45 -14 88 -27 94 -29 9 -3 -1 -25 -28 -67 -63 -98 -56 -97
-133 -19 l-68 68 24 37 c12 19 24 36 26 36 2 0 40 -12 85 -26z m267 -194 c0
-3 -38 -24 -83 -47 l-84 -41 -35 35 -36 35 51 79 51 79 68 -67 c37 -37 68 -70
68 -73z m-357 61 c37 -38 67 -72 67 -75 0 -18 -69 -46 -113 -46 -59 0 -82 11
-103 51 -22 44 -10 84 34 114 20 14 39 25 43 25 3 0 35 -31 72 -69z m387 -164
c0 -78 -39 -127 -101 -127 -42 0 -89 49 -89 94 0 21 172 108 182 92 4 -6 8
-33 8 -59z"/></g></svg>